<svg xmlns="http://www.w3.org/2000/svg" xmlns:xlink="http://www.w3.org/1999/xlink" viewBox="0 0 300 300">
<defs>
<style>.cls-1{fill:url(#radial-gradient);}.cls-2{fill:#333;}.cls-3{fill:#006;}.cls-4{fill:#900;}.cls-5{fill:url(#radial-gradient-2);}.cls-6{fill:url(#radial-gradient-3);}.cls-7{fill:url(#radial-gradient-4);}.cls-8{fill:#fff;}</style><radialGradient id="radial-gradient" cx="150" cy="150" r="148.242" gradientUnits="userSpaceOnUse"><stop offset="0.7" stop-color="#ddd"/><stop offset="0.85" stop-color="#eee"/><stop offset="1" stop-color="#ddd"/></radialGradient><radialGradient id="radial-gradient-2" cx="150" cy="216.797" fx="160.81286286102807" fy="184.27124292864823" r="34.276" gradientUnits="userSpaceOnUse"><stop offset="0" stop-color="#fff"/><stop offset="0.426" stop-color="#fdfdfd"/><stop offset="0.579" stop-color="#f6f6f6"/><stop offset="0.689" stop-color="#ebebeb"/><stop offset="0.777" stop-color="#dadada"/><stop offset="0.853" stop-color="#c4c4c4"/><stop offset="0.92" stop-color="#a8a8a8"/><stop offset="0.979" stop-color="#898989"/><stop offset="1" stop-color="#7c7c7c"/></radialGradient><radialGradient id="radial-gradient-3" cx="150" cy="216.797" fx="160.39870612211132" fy="205.0063918382004" r="31.904" gradientUnits="userSpaceOnUse"><stop offset="0.159" stop-color="#555"/><stop offset="0.881"/></radialGradient><radialGradient id="radial-gradient-4" cx="150" cy="210.312" fx="150.00019720696218" fy="210.31210404300145" r="7.401" xlink:href="#radial-gradient-3"/></defs>
  <ellipse
     style="opacity:1;fill:#ffffff;fill-opacity:1;stroke-width:1"
     id="path4832"
     cx="149.83713"
     cy="150.1153"
     rx="102.74003"
     ry="102.84143" />
<g id="Full_Colour" data-name="Full Colour"><path id="Donought" class="cls-1" d="M150,1.758A148.242,148.242,0,1,0,298.242,150,148.242,148.242,0,0,0,150,1.758Zm0,252.751A104.509,104.509,0,1,1,254.509,150,104.509,104.509,0,0,1,150,254.509Z"/><path id="Circles" class="cls-2" d="M300,150A150,150,0,1,1,150,0,150,150,0,0,1,300,150ZM207.017,284.974A146.977,146.977,0,1,0,150,296.484,145.987,145.987,0,0,0,207.017,284.974ZM150,256.267a105.951,105.951,0,1,1,41.365-8.353A105.614,105.614,0,0,1,150,256.267Zm.146-209.1A102.686,102.686,0,1,0,252.832,149.854,102.686,102.686,0,0,0,150.146,47.168Z"/><path class="cls-3" d="M89.687,262.56l-3.335-1.905-2.547,4.46,3.793,2.166-1.107,1.939-6.023-3.44,8.021-14.049,5.774,3.3-1.107,1.939-3.543-2.024-2.2,3.857,3.335,1.9Z"/><path class="cls-3" d="M90.191,268.38a4,4,0,0,0,1.548,1.435,1.3,1.3,0,0,0,1.9-.577c.311-.649.216-1.227-.456-2.322-1.111-1.679-1.207-2.977-.7-4.037a3.424,3.424,0,0,1,4.742-1.61,4.591,4.591,0,0,1,1.784,1.5l-1.3,1.48a2.965,2.965,0,0,0-1.232-1.15,1.2,1.2,0,0,0-1.719.532c-.271.562-.167,1.012.538,2.149a4.1,4.1,0,0,1,.615,4.209c-1.029,2.143-3.052,2.529-5.043,1.573a4.58,4.58,0,0,1-1.959-1.687Z"/><path class="cls-3" d="M105.479,261.918l-1.092,2.689,2.089.85-.7,1.734-2.089-.849-2.276,5.6c-.542,1.334-.167,1.875.434,2.119a4.163,4.163,0,0,0,.761.232l-.706,1.863a5.943,5.943,0,0,1-1.628-.454,2.865,2.865,0,0,1-1.642-1.444c-.316-.75-.258-1.659.393-3.26l2.285-5.625-1.289-.523.7-1.735,1.29.525.759-1.869Z"/><path class="cls-3" d="M112.355,276.95a18.675,18.675,0,0,0-.688,2.579l-2.191-.714.234-1.185-.045-.016a2.882,2.882,0,0,1-2.782.559c-1.6-.52-2.369-2.261-1.738-4.2.929-2.853,3.743-3.276,6.261-2.481l.1-.3c.372-1.141.183-2.111-1.027-2.506a3.968,3.968,0,0,0-2.278-.059l.086-1.816a6.505,6.505,0,0,1,3.319.2c2.877.936,2.967,3.136,2.195,5.51Zm-1.408-3.816c-.967-.289-2.76-.6-3.392,1.345-.409,1.255.1,1.927.653,2.106a1.553,1.553,0,0,0,1.809-.825,2.312,2.312,0,0,0,.254-.549Z"/><path class="cls-3" d="M119.023,264.372l2.477.581-1.414,6.026.047.012a2.687,2.687,0,0,1,2.717-.866c2.009.471,2.64,3.034,1.851,6.4-.947,4.042-3.064,5.714-5.027,5.254a2.455,2.455,0,0,1-1.87-2.114l-.071-.016-.468,1.369-2.126-.5c.22-.835.6-2.127.817-3.062Zm-.367,12.7a3.145,3.145,0,0,0-.076.746c.048,1.269.571,1.662.992,1.761,1.215.285,2.055-1.194,2.591-3.483.493-2.1.375-3.807-.816-4.086-.654-.154-1.362.445-1.677,1.16a3.946,3.946,0,0,0-.269.725Z"/><path class="cls-3" d="M129.157,266.569l2.534.419-2.713,16.388-2.535-.419Z"/><path class="cls-3" d="M132.455,283.874l1.4-11.607,2.55.306-1.4,11.608Zm4.383-14.318a1.361,1.361,0,0,1-1.581,1.284,1.341,1.341,0,0,1-1.136-1.611,1.373,1.373,0,1,1,2.717.327Z"/><path class="cls-3" d="M138.46,282.107a3.989,3.989,0,0,0,1.97.754,1.3,1.3,0,0,0,1.549-1.244c.046-.719-.257-1.22-1.29-1.984-1.655-1.143-2.228-2.311-2.151-3.484a3.422,3.422,0,0,1,3.8-3.26,4.586,4.586,0,0,1,2.213.721l-.652,1.858a2.959,2.959,0,0,0-1.57-.609,1.2,1.2,0,0,0-1.4,1.135c-.041.622.222,1,1.3,1.792a4.1,4.1,0,0,1,2.14,3.675c-.156,2.37-1.888,3.483-4.091,3.339a4.582,4.582,0,0,1-2.445-.834Z"/><path class="cls-3" d="M147.041,268.449l2.568-.041.1,6.169h.048a3.373,3.373,0,0,1,.992-1.024,2.9,2.9,0,0,1,1.554-.457c1.847-.03,2.9,1.49,2.951,4.443l.118,7.393-2.568.04-.116-7.3c-.021-1.273-.3-2.42-1.383-2.4-.672.011-1.217.476-1.465,1.464a4.725,4.725,0,0,0-.082.89l.117,7.393-2.568.041Z"/><path class="cls-3" d="M160.65,279.418c.265,2.6,1.55,3.206,2.912,3.08a5.092,5.092,0,0,0,2.04-.623l.528,1.807a7.5,7.5,0,0,1-2.864.82c-2.987.276-4.814-1.748-5.148-5.356-.355-3.847,1.291-6.362,3.777-6.591,2.437-.226,3.885,1.881,4.172,4.987.063.669.05,1.056.055,1.369Zm3.01-2.11c-.148-1.867-.872-2.909-1.78-2.825-1.1.1-1.452,1.749-1.374,3.117Z"/><path class="cls-3" d="M174.756,265.867l2.349,13.237c.168.945.447,2.236.649,3.1l-2.174.386-.386-1.346-.071.013a2.75,2.75,0,0,1-2.109,1.984c-2.246.4-3.931-1.813-4.548-5.288-.718-4.042.687-6.29,2.555-6.622a2.118,2.118,0,0,1,2.231.9l.048-.008-1.05-5.909Zm-.865,9.687a3.637,3.637,0,0,0-.173-.7c-.258-.906-.921-1.617-1.677-1.482-1.276.227-1.407,2.1-1.042,4.158.411,2.317,1.29,3.7,2.355,3.508.472-.084,1.016-.449,1.118-1.661a2.533,2.533,0,0,0-.039-.773Z"/><path class="cls-3" d="M185.229,266.706l-.046.015L183.1,268.84l-1.02-1.772,2.751-2.824,2.088-.639,4.563,14.917-2.41.738Z"/><path class="cls-3" d="M196.452,274.736a6.015,6.015,0,0,0,1.181-.6,4.258,4.258,0,0,0,1.4-1.726,6.721,6.721,0,0,0,.153-4.069l-.067.026a2.932,2.932,0,0,1-1.764,1.922c-1.848.741-3.965-.35-5.028-3-1.018-2.54-.529-5.58,2.011-6.6,2.606-1.044,4.907.956,6.255,4.32a11.168,11.168,0,0,1,.566,7.736,6.229,6.229,0,0,1-2.65,3.389,7.242,7.242,0,0,1-1.256.607Zm-1.562-12.223c-.78.312-1.154,1.574-.292,3.659.71,1.707,1.749,2.557,2.751,2.155a1.787,1.787,0,0,0,1.033-1.551,4.019,4.019,0,0,0-.375-1.323c-.974-2.429-2.137-3.333-3.095-2.949Z"/><path class="cls-3" d="M207.051,255l.73,1.459,1.812,14.71-2.232,1.117-1.617-14.056-.021-.043-4.87,2.439-1.01-2.017Z"/><path class="cls-3" d="M214.278,259.22a4.25,4.25,0,0,1-3.492-1.948,3.9,3.9,0,0,1,1.4-5.545,3.625,3.625,0,0,1,5.118,1.292,4.15,4.15,0,0,1,.087,4.108l.038.061a4.705,4.705,0,0,1,4.239,2.25,4.235,4.235,0,0,1-1.405,6.086,4.032,4.032,0,0,1-5.789-1.334,5.126,5.126,0,0,1-.147-4.942Zm-1.472-3.291a2.96,2.96,0,0,0,2.83,1.367,3,3,0,0,0-.206-2.827c-.662-1.086-1.584-1.676-2.446-1.152C212.165,253.817,212.193,254.925,212.806,255.929Zm6.824,4.92a3.656,3.656,0,0,0-3.376-1.709,3.621,3.621,0,0,0,.185,3.485c.788,1.291,1.954,1.958,2.978,1.333C220.319,263.408,220.454,262.2,219.63,260.849Z"/><path class="cls-4" d="M31.455,188.076l3.22,8.329,5.373-2.077-3.6-9.3,4.2-1.623L46.22,197.81l-22.636,8.752L18.2,192.624l4.2-1.623,3.415,8.832,4.7-1.817-3.22-8.329Z"/><path class="cls-4" d="M39.76,180.866l-23.85,4.443-1.173-6.3,7.817-6.582A76.453,76.453,0,0,1,30,167.013l-.013-.071a99.715,99.715,0,0,1-9.9,2.284l-6.935,1.292-.923-4.955,23.85-4.442,1.054,5.661-8.251,6.81a82.649,82.649,0,0,1-7.65,5.709l.026.141c3.152-.77,6.5-1.467,10.393-2.192l7.183-1.338Z"/><path class="cls-4" d="M35.114,137.263a27.121,27.121,0,0,1,1.2,8.127c-.089,4.427-1.271,7.608-3.44,9.8a12.168,12.168,0,0,1-8.924,3.239c-8.062-.2-12.551-6.161-12.389-14.116a17.528,17.528,0,0,1,1.289-6.707l4.4,1.241a12.714,12.714,0,0,0-1.158,5.594c-.093,4.572,2.392,8.115,7.683,8.223,5.039.1,8.019-3.006,8.111-7.506a8.413,8.413,0,0,0-.27-2.67l-5.111-.1-.076,3.743-4.284-.087L22.336,137Z"/><path class="cls-4" d="M13.108,129.265l1.079-5.366,19.27,3.874,1.9-9.458,4.517.909L36.9,134.047Z"/><path class="cls-4" d="M19.539,104.028l23.037,7.6-1.715,5.195-23.037-7.6Z"/><path class="cls-4" d="M38.778,105.206a13.848,13.848,0,0,0,3.976-4.847c1.08-2.275.709-3.926-.722-4.606-1.365-.649-2.64.021-4.8,2.223-3.03,3.024-6.189,4.473-9.376,2.96-3.739-1.776-5.07-6.274-2.63-11.412a14.2,14.2,0,0,1,3.761-5.067l3.442,2.989a11.346,11.346,0,0,0-3.2,4.059c-1.019,2.145-.5,3.665.6,4.19,1.4.663,2.588-.246,5.02-2.6,3.268-3.191,6.133-4.022,9.222-2.555,3.675,1.745,5.468,6.024,2.611,12.04a15.833,15.833,0,0,1-4.315,5.562Z"/><path class="cls-4" d="M35.369,72.516l7.548,5.477,5.309-7.315L40.678,65.2l3.214-4.429L63.535,75.024l-3.214,4.43L52.1,73.49l-5.308,7.316,8.218,5.964L51.8,91.2,32.155,76.945Z"/><path class="cls-4" d="M61.949,43.5A45.079,45.079,0,0,1,67.63,38.7c2.728-2,5.056-2.907,7.129-2.821a6.989,6.989,0,0,1,5.412,2.994A7.563,7.563,0,0,1,81.78,44.84c-.487,2.5-2.232,4.808-4.843,6.725a9.394,9.394,0,0,1-1.595.993L80.5,59.581,76.115,62.8Zm10.9,5.665a8.134,8.134,0,0,0,1.565-.971c2.351-1.725,2.929-3.98,1.481-5.954-1.321-1.8-3.357-1.957-5.592-.316a9.734,9.734,0,0,0-1.693,1.466Z"/><path class="cls-4" d="M107.006,30.538c3.391,7.236,1.088,13.6-5.366,16.627C95.154,50.2,89,47.085,86.054,40.8c-3.085-6.584-1.155-13.491,5.3-16.516C98.1,21.118,104.15,24.443,107.006,30.538Zm-15.75,7.7c2.031,4.335,5.473,6.419,8.8,4.862,3.357-1.574,3.783-5.668,1.782-9.939-1.863-3.975-5.31-6.495-8.732-4.891C89.713,29.857,89.255,33.968,91.256,38.237Z"/><path class="cls-4" d="M133.512,24.125c1.758,7.8-1.861,13.522-8.816,15.091-6.99,1.576-12.33-2.793-13.859-9.572-1.6-7.1,1.771-13.43,8.726-15C126.834,13.007,132.031,17.557,133.512,24.125Zm-17.043,4.138c1.053,4.672,3.968,7.447,7.551,6.639,3.617-.815,4.914-4.725,3.876-9.327-.966-4.285-3.792-7.486-7.48-6.655C116.763,19.744,115.432,23.661,116.469,28.263Z"/><path class="cls-4" d="M137.942,12.079l5.47-.206.741,19.645,9.643-.364.174,4.606-15.112.57Z"/><path class="cls-4" d="M177.019,32.752l-3.255,5.585L168.3,36.9l13.308-21.592,6.964,1.831,1.142,25.391-5.745-1.51-.227-6.5Zm7-2.4-.154-5.364c-.051-1.5-.011-3.353.007-4.838l-.07-.018c-.714,1.3-1.529,2.985-2.27,4.243l-2.7,4.613Z"/><path class="cls-4" d="M194.2,38.54a13.876,13.876,0,0,0,4.869,3.951c2.283,1.07,3.933.689,4.6-.746.641-1.37-.035-2.641-2.249-4.791-3.041-3.016-4.507-6.167-3.01-9.363,1.756-3.749,6.248-5.105,11.4-2.692a14.185,14.185,0,0,1,5.089,3.736l-2.971,3.459a11.357,11.357,0,0,0-4.078-3.182c-2.151-1.008-3.669-.486-4.188.623-.656,1.4.26,2.587,2.625,5.007,3.209,3.252,4.055,6.114,2.6,9.212-1.726,3.684-6,5.5-12.029,2.676a15.837,15.837,0,0,1-5.587-4.287Z"/><path class="cls-4" d="M211.589,47.139a13.835,13.835,0,0,0,4.167,4.682c2.079,1.423,3.767,1.314,4.662.007.853-1.248.391-2.611-1.446-5.09-2.515-3.465-3.453-6.81-1.461-9.721,2.337-3.417,6.987-4.031,11.681-.819a14.191,14.191,0,0,1,4.419,4.506l-3.49,2.934a11.344,11.344,0,0,0-3.509-3.8c-1.961-1.341-3.542-1.07-4.232-.061-.874,1.278-.161,2.594,1.782,5.364,2.642,3.725,3.016,6.685,1.084,9.507-2.3,3.358-6.8,4.461-12.3.7a15.838,15.838,0,0,1-4.82-5.13Z"/><path class="cls-4" d="M247.819,69.106c-5.664,5.64-12.436,5.626-17.466.575-5.056-5.077-4.2-11.924.722-16.827,5.154-5.132,12.309-5.652,17.339-.6C253.674,57.535,252.59,64.355,247.819,69.106ZM235.242,56.885c-3.393,3.379-4.19,7.324-1.6,9.926,2.617,2.627,6.616,1.643,9.959-1.685,3.112-3.1,4.317-7.2,1.649-9.875C242.609,52.6,238.584,53.557,235.242,56.885Z"/><path class="cls-4" d="M250.753,94.425a16.09,16.09,0,0,1-4.3-4.576c-4.646-6.983-2.664-13.491,3.09-17.32,6.893-4.587,13.969-2.2,18.037,3.909a13.734,13.734,0,0,1,2.412,5.573l-4.234,1.434a11.577,11.577,0,0,0-1.8-4.335c-2.393-3.595-6.456-4.957-10.951-1.965-4.046,2.692-5,6.785-2.3,10.831a13.085,13.085,0,0,0,3.212,3.4Z"/><path class="cls-4" d="M275.466,91.76l-21.793,10.665-2.4-4.915,21.792-10.665Z"/><path class="cls-4" d="M263.247,109.333l-6.459.275-1.742-5.379,25.363-.454,2.219,6.852-20.76,14.67-1.83-5.651,5.35-3.7Zm5.8,4.594,4.432-3.026c1.238-.854,2.818-1.82,4.077-2.606l-.023-.069c-1.48.1-3.339.325-4.8.38l-5.342.216Z"/><path class="cls-4" d="M281.6,126.314l-1.02-6.473,4.553-.717,2.9,18.425-4.553.717-1.03-6.545-19.421,3.057-.85-5.406Z"/><path class="cls-4" d="M288.288,148.25l-24.251.782-.176-5.469,24.25-.782Z"/><path class="cls-4" d="M274.172,176.442c-7.938-.927-12.136-6.239-11.309-13.318.832-7.114,6.724-10.7,13.624-9.895,7.222.845,12.077,6.124,11.249,13.2C286.871,173.832,280.856,177.225,274.172,176.442ZM275.922,159c-4.755-.556-8.34,1.272-8.766,4.918-.43,3.683,2.826,6.2,7.51,6.749,4.361.511,8.318-1.093,8.757-4.847C283.857,162.1,280.6,159.546,275.922,159Z"/><path class="cls-4" d="M261.174,177.307l22.965,7.826-2.067,6.065-10.042,1.9a76.455,76.455,0,0,1-9.147,1.066l-.024.067a100.268,100.268,0,0,1,9.748,2.867l6.678,2.275-1.625,4.771-22.966-7.827,1.859-5.452,10.531-1.887a82.19,82.19,0,0,1,9.468-1.223l.046-.136c-3.124-.875-6.385-1.91-10.133-3.187l-6.916-2.358Z"/><g id="_8_Ball" data-name="8 Ball"><circle class="cls-5" cx="150" cy="216.797" r="31.258"/><path class="cls-6" d="M150,184.893a31.9,31.9,0,1,0,31.9,31.9A31.939,31.939,0,0,0,150,184.893Zm21.28,9.929a74.985,74.985,0,0,0-20.994-2.583c-9.887,0-16.286.984-21.294,2.324a30.531,30.531,0,0,1,42.288.259Zm-9.386,15.76A11.894,11.894,0,1,1,150,198.689,11.893,11.893,0,0,1,161.894,210.582ZM150,247.409a30.565,30.565,0,0,1-23.847-11.449c6.909-2.764,13.946-3.39,24.133-3.39,10.275,0,17.123.694,23.65,3.277A30.567,30.567,0,0,1,150,247.409Z"/><path class="cls-7" d="M145.477,206.022a4.488,4.488,0,0,0,1.127,2.956,5.647,5.647,0,1,0,6.793,0,4.483,4.483,0,0,0,1.127-2.956,4.524,4.524,0,0,0-9.047,0ZM150,204.213a1.81,1.81,0,1,1-1.81,1.809A1.812,1.812,0,0,1,150,204.213Zm0,6.333a2.933,2.933,0,1,1-2.934,2.932A2.936,2.936,0,0,1,150,210.546Z"/></g><path d="M248.875,137.069l-1.422-3.7L68.5,199.208a2.207,2.207,0,0,0-1.432,2.3,3.278,3.278,0,0,0,2.156,5.616,2.209,2.209,0,0,0,2.606.754Z"/><path class="cls-8" d="M124.8,180.652a.193.193,0,0,0-.112.1.224.224,0,0,0-.02.112l12.96-3.658a.472.472,0,0,1,.332.881l-12.261,5.869a.215.215,0,0,0,.169.087l.037-.008.038-.007,117.879-47.1-.034-.091Z"/><polygon class="cls-8" points="244.365 135.565 246.873 134.643 247.588 136.506 245.097 137.512 244.365 135.565"/><path d="M51.125,137.069l1.422-3.7L231.5,199.208a2.207,2.207,0,0,1,1.432,2.3,3.278,3.278,0,0,1-2.156,5.616,2.209,2.209,0,0,1-2.606.754Z"/><path class="cls-8" d="M175.205,180.652a.193.193,0,0,1,.112.1.224.224,0,0,1,.02.112l-12.96-3.658a.472.472,0,0,0-.332.881l12.261,5.869a.215.215,0,0,1-.169.087l-.037-.008-.038-.007-117.879-47.1.034-.091Z"/><polygon class="cls-8" points="55.635 135.565 53.127 134.643 52.412 136.506 54.903 137.512 55.635 135.565"/><path class="cls-4" d="M126.977,55.714c.309.261,1.248.841,1.538-.136.055-.182-.657-.777-1.048-.923a5.6,5.6,0,0,0-1.748.019,4.955,4.955,0,0,1,.636.489C126.555,55.345,126.82,55.581,126.977,55.714Z"/><path class="cls-4" d="M121.249,58.01a8.952,8.952,0,0,0-1.157.571,1.962,1.962,0,0,1,.924.038,2.8,2.8,0,0,1,.919.606l.579-.136a4.5,4.5,0,0,0,.392-.6c.065-.171.1-.608-.228-.7A3.115,3.115,0,0,0,121.249,58.01Z"/><path class="cls-4" d="M120.535,64.782a3.022,3.022,0,0,0-.265,1.2c.065.266.347,1.262.347,1.262a3.527,3.527,0,0,1,1.033-1.668c.773-.671-.569-1.937-.484-1.771A4.876,4.876,0,0,0,120.535,64.782Z"/><path class="cls-4" d="M121.04,74.235c-.291.092-1.183.531-1.183.531a3.185,3.185,0,0,1,1.471.3.906.906,0,0,0,.981-.2s.589-.419.121-.9A9.422,9.422,0,0,0,121.04,74.235Z"/><path class="cls-4" d="M120.067,80.492a5.886,5.886,0,0,0,.08,1.533l.826-1.283a1.534,1.534,0,0,1-.5-1.316C120.489,79.294,120.212,79.781,120.067,80.492Z"/><path class="cls-4" d="M123.722,85.491a3.545,3.545,0,0,1,.938-1.592,3.26,3.26,0,0,1-1.228-.744A2.932,2.932,0,0,0,123.722,85.491Z"/><path class="cls-4" d="M148.123,83.543a2.562,2.562,0,0,0,.043,1.322,2.358,2.358,0,0,1,1.11-1.119,5.273,5.273,0,0,1-.248-1.431A3.579,3.579,0,0,0,148.123,83.543Z"/><path class="cls-4" d="M151,86.452a3.455,3.455,0,0,0-.242,1.648,4.108,4.108,0,0,0,.63,1.083,1.869,1.869,0,0,1,.663-1.907.872.872,0,0,0-.291-.42A1.807,1.807,0,0,0,151,86.452Z"/><path class="cls-4" d="M157.463,89.005a2.844,2.844,0,0,1,.18.975,1.4,1.4,0,0,0,.547-.571,5.064,5.064,0,0,0,.356-1.438,3.64,3.64,0,0,1-1.826.113A3.783,3.783,0,0,1,157.463,89.005Z"/><path class="cls-4" d="M165.03,83.438a3.313,3.313,0,0,0-.222,1.695,1.91,1.91,0,0,0,.387,1.02c.077-.033.007-.719.567-1.152a.735.735,0,0,1,.439-.131,1.682,1.682,0,0,1-.311-.535.9.9,0,0,1-.012-.545A1.6,1.6,0,0,1,165.03,83.438Z"/><path class="cls-4" d="M168.532,88.565a2.337,2.337,0,0,0,.614,1.168,3.681,3.681,0,0,0,.49-.756,4.338,4.338,0,0,0,0-.889,2.687,2.687,0,0,1-1.116-.566A2.678,2.678,0,0,0,168.532,88.565Z"/><path class="cls-4" d="M174.762,87.983a7.188,7.188,0,0,1-1.212.073,5.375,5.375,0,0,0,1.066,1.03,2.6,2.6,0,0,0,1.085.252,1.554,1.554,0,0,1-.321-.895,1.374,1.374,0,0,1,.133-.678A2.8,2.8,0,0,1,174.762,87.983Z"/><path class="cls-3" d="M146.919,65.9c-.044,1.142-.49,1.506-1.3,2.32l-1.109,1.11-.461-.99c-.134.2-.263.4-.4.612-.225.351-.458.714-.715,1.069a4.088,4.088,0,0,1-.653.678c-.07.062-.142.124-.21.19l-.969.93-.427-.674a12.811,12.811,0,0,1-1.034.82,2.04,2.04,0,0,1-1.168.45,1.743,1.743,0,0,1-1.431-.942,9.5,9.5,0,0,1-.549-.964l-.339.377-.805-1.036a3.562,3.562,0,0,1-.638-1.3L133.655,69s-.639-3.052-.718-3.581a4.665,4.665,0,0,1-4.447-2.7,3.094,3.094,0,0,1-.264-1.791c.55-1.518,1.888-2.213,1.448-3.829-.069-.253-.462-.717-.677-.716-.279,0-.192.216-.443.312a2.557,2.557,0,0,1-1.225.183.647.647,0,0,0-.916-.139.349.349,0,0,0-.228.341l.244,2.128-.694.222a3.357,3.357,0,0,0-.168-.505,3.55,3.55,0,0,0-1.092-1.143,2,2,0,0,0-.744-.091,1.278,1.278,0,0,1,.135.8,4.264,4.264,0,0,1-1.114,1.357c-.361.3-.215,1.4.349,1.522,0,0,1.03.172,1.281.48l.231.283-.123.49-.367-.291a1.755,1.755,0,0,0-1.147.045c-.339.1-.367.4-.69.568-.168.086-.683.454-.683.454.009-.057.563.213.774.773a3.085,3.085,0,0,0,.5,1.12s.377.557.864.462l.452-.1c.414-.046.247-.526.624-.595l.558-.123s.285,1.9.5,2.745a11.605,11.605,0,0,0,.469,1.312c.338.779,1.213,1.63,1.18,1.443A2.928,2.928,0,0,1,128,68.682a1.426,1.426,0,0,1,.282-.183s.454,2.458.672,3.183a3.4,3.4,0,0,0,.891,1.114,1.482,1.482,0,0,1,.149-1.22,1,1,0,0,1,.568-.395s1.987,1.395,1.81,2.553c0,0-.711,1.552-4.617,2.713a6.494,6.494,0,0,1-1.445,0s-.342-.812-.491-1.052c-.164-.265-.768-1.24-1.419-1.481a4.575,4.575,0,0,0-.981-.066,1.252,1.252,0,0,1,.078.856c-.22.561-1.574,1.48-1.574,1.48a1.39,1.39,0,0,0,.645.724,4.067,4.067,0,0,0,1.574.23l-.052.526a5.7,5.7,0,0,0-2.165.514c-.56.3-1.43,1.576.488,2.414a5.812,5.812,0,0,0,1.29.165,2.438,2.438,0,0,1,.413-.987,5.669,5.669,0,0,1,.439-.461s.957-.137.516.823c-.189.41-1.013.591-1.265,1.151-.464,1.034.615,1.6,1.136,1.711s1.9.226,1.9.226a11.8,11.8,0,0,0,.806-1.115,6.056,6.056,0,0,0,.491-1.019s.624.459.722.723a5.853,5.853,0,0,1-.025,1.579s.519.01.672-.168a4.008,4.008,0,0,0,.695-3.253,2.039,2.039,0,0,1,.62.1,1.641,1.641,0,0,1,.593.724,2.764,2.764,0,0,1-.017,1.679,1.734,1.734,0,0,0-.009.393,5.386,5.386,0,0,0,1.574-1.678,1.735,1.735,0,0,0,.026-.987l.8-.559a8.294,8.294,0,0,1,1.124.14,4,4,0,0,1,1.454,1.188,5.491,5.491,0,0,0-.281-1.459c-.054-.13-.188-.39-.155-.527a9.424,9.424,0,0,1,1.987-3.552l.491.032a4.648,4.648,0,0,0,1.393,1.579,5.459,5.459,0,0,0,1.832.428s-.293-.607-.387-.822c-.178-.406-.051-.592-.051-.592s3.1-.066,3.277-.066-.083-.548-.083-.548l2.56-.077-.112-.432a14.324,14.324,0,0,0,2.228-.259c1.642-.387,4.838-1.8,6.5-1.974a10.108,10.108,0,0,1,1.446.132c.361.033-3.584,1.665-3.588,4.77,0,1.158,1.459,2.591,3.123,2.73.3.026,1.213.033,1.213.033l.077.625a4.694,4.694,0,0,1-1.935,1.612,10.022,10.022,0,0,1-1.961.033,11.106,11.106,0,0,0-.955-.987,2.453,2.453,0,0,0-2.245-.428,5.385,5.385,0,0,0-.9.527s.052,1.888.62,2.3c.59.431,1.755-.625,1.755-.625l.7.1a2.179,2.179,0,0,1-.129.329c-.393.583-1.338.753-1.6,1.25a.763.763,0,0,0,.078.691,3.29,3.29,0,0,1,1.109.493,11.329,11.329,0,0,1,1.213,1.316,1.948,1.948,0,0,0,1.187-.954c.057-.146.181-.625.181-.625a4.549,4.549,0,0,1,.568-.691c.265-.243.49-.46.49-.46l.439-.033a3.915,3.915,0,0,1-.1.822c-.054.122-.293.233-.336.362-.051.152.041,1.1.516,1.283a6.2,6.2,0,0,0,2.142-.066c.486-.212.722-1.489.594-1.842-.067-.184-.439-.362-.542-.428s.025-.756.025-.756.362-.132.465-.033a8.78,8.78,0,0,1,.9.921,8.817,8.817,0,0,1,.439.921.928.928,0,0,0,.671-.428,1.8,1.8,0,0,0,.051-1.546,2.661,2.661,0,0,0-.258-.427l-.051-.823a1.447,1.447,0,0,1,.98.494,2.344,2.344,0,0,1,.626,1.833s.962-.563,1.055-1.261a2.131,2.131,0,0,0-.184-1.23l.078-.4s1.79-.084,1.806-.954a3.55,3.55,0,0,1,.955-2.4,2.509,2.509,0,0,0-.813.072,5.826,5.826,0,0,0-.581.355,1.7,1.7,0,0,1-.8,0,2.084,2.084,0,0,1-1.342-2.5c.216-.933,2.22-2.631,2.22-2.631l.516.164s.3,1.17.413,1.546a4.905,4.905,0,0,0,2.142,2.829,13.409,13.409,0,0,0,4.567.855l.723,1.481a3.041,3.041,0,0,1-1.5,1.776,4.233,4.233,0,0,1-1.5-.066c-.839-.165-1.216-1.494-2.658-1.48a2.809,2.809,0,0,0-1.548.79,7.06,7.06,0,0,0-.731.65,2.862,2.862,0,0,0,.447.369,2.272,2.272,0,0,0,.955.165s-.1.316-.129.427a1.221,1.221,0,0,0,1.755,1.218c.223-.092.593-.889.593-.889l.387.1a1.878,1.878,0,0,1-.077.559c-.079.123-.368.13-.465.231a1.877,1.877,0,0,0-.309,1.743,2.3,2.3,0,0,0,2.554.625c.327-.13.372-.486.439-.691a2.343,2.343,0,0,0,.078-.954,1.2,1.2,0,0,0,.361-.1,3.4,3.4,0,0,0,.671-.79l.464.165s-.525,1.7.258,2.4c.152.136,2.429.025,3.045-.921a2.554,2.554,0,0,0-.24-1.9c-.11-.175-.508-.631-.508-.631l.207-.526a3.494,3.494,0,0,1,.541.032,2.464,2.464,0,0,1,1.7,1.25,1.5,1.5,0,0,0,.361-.921,2.01,2.01,0,0,0-.342-1.337,8.582,8.582,0,0,0-.819-.735,2.594,2.594,0,0,1-.026-.625c.033-.312.757-.109.833-.094a4,4,0,0,1,2.006,1.344,14.188,14.188,0,0,0-.091-2.083,3.728,3.728,0,0,0-1.432-2.128,7.474,7.474,0,0,0-.826-.23,6.734,6.734,0,0,1-.645-.428l.026-.361a3.908,3.908,0,0,0,1.368-1.316,3.41,3.41,0,0,0,.309-1.579,4.077,4.077,0,0,0-1.135-2.862,8.352,8.352,0,0,0-1.084-.757,3,3,0,0,1-.077,1.711,2,2,0,0,1-1.755,1.349c-.591,0-2.036-1.676-2.22-1.974-.31-.5-.286-.854-.025-1.119a6.613,6.613,0,0,1,.542-.427,3.613,3.613,0,0,0,1.445-.066,4.564,4.564,0,0,0,3.638-4.079c.2-2.75-1.753-3.95-3.071-4.573a6.729,6.729,0,0,0-1.935-.427l-.181.658-2.322-.724a1.743,1.743,0,0,1-.387.789c-.6.633-3.945.606-4.561.647-.3.02-1.212,0-1.212,0s-.511-.559-.7-.723a5.828,5.828,0,0,0-4.077-1.349c-3.027.158-5.295,2.2-7.252,2.467a9.317,9.317,0,0,1-2.039-.066,6.875,6.875,0,0,0,1.391.963,7.567,7.567,0,0,0,1.293.419,5.7,5.7,0,0,1-3.38.164,7.756,7.756,0,0,0,1.058.888c1.465.723,4.361.626,5.651.494a53.925,53.925,0,0,0,7.484-1.48c.231-.069.671-.3.9-.362a38.329,38.329,0,0,1,6.9-.317c.812.085,2.69.388,2.818,2.137a2.342,2.342,0,0,1-2.09,2.072c-2.289.481-7-.359-9.316,0-.613.1-1.786.658-2.4.757a19.33,19.33,0,0,1-2.967.033c-.4-.018-1.315-.14-1.6-.2-.431-.087-.258-.329-.258-.329s-.726.028-.981,0c-.324-.036-.347-.294-.232-.3,0,0-1.21.018-1.626-.033-.679-.084-.49-.461-.49-.461a9.45,9.45,0,0,1-2.168.033.416.416,0,0,1-.284-.46s-1.613.427-1.935-.033c-.169-.241.1-1.283.1-1.283a2.8,2.8,0,0,0-.462.12c-.175.084-.418.431-.6.505C147.123,65.978,147.081,65.962,146.919,65.9Z"/><path class="cls-3" d="M147.946,57.806c.627-1.049.306-2.125.12-3.224a6.947,6.947,0,0,1-.68.6.728.728,0,0,1-1.146-.3,1.73,1.73,0,0,1-.111-.817,4.515,4.515,0,0,1,.257-.872c-.375.117-.659.21-.946.294a4.526,4.526,0,0,1-1.06.283c-.7.022-1.014-.426-.832-1.095.07-.257.182-.5.285-.782a3.851,3.851,0,0,0-1.792.417,8.312,8.312,0,0,1-1.178.525.518.518,0,0,1-.744-.433,7.008,7.008,0,0,1-.1-.7,1.648,1.648,0,0,0-1.16.748A10.853,10.853,0,0,1,138,53.454a.366.366,0,0,1-.321.072c-.583-.214-1.157-.452-1.766-.7a4.579,4.579,0,0,0-.471,2.424.613.613,0,0,1-.1.373,9.76,9.76,0,0,0-.6.851c-.183.359-.261.771-.434,1.138a1,1,0,0,1-1.332.7c.009.1.01.2.025.289a2.858,2.858,0,0,0,1.087,1.836c.115.091.113.33.165.5-.174.043-.364.151-.519.113a4.035,4.035,0,0,1-.749-.345,2.658,2.658,0,0,0,.567,1.634,2.206,2.206,0,0,1,.473,1.7,4.256,4.256,0,0,0,0,1.219c.1.708.276,1.406.437,2.2l1.177-.509a3.438,3.438,0,0,0,.574,2.227,1.48,1.48,0,0,1,.123-.135c.135-.116.272-.228.409-.341.095.149.2.292.285.447.308.574.567,1.179.925,1.719s.511.576,1.058.2c.6-.413,1.121-.924,1.69-1.377a2.4,2.4,0,0,1,.5-.237c.01.175.019.349.031.524,0,.019.022.038.077.125a5.978,5.978,0,0,0,.735-.72c.412-.57.769-1.179,1.166-1.759a4.187,4.187,0,0,1,.649-.8c.288-.252.575-.165.769.169.082.141.14.3.213.453a3.869,3.869,0,0,0,1.079-2.566c0-.567-.059-1.134-.062-1.7a2.621,2.621,0,0,1,.164-.612,6.152,6.152,0,0,0,.68,1.147c.325.339.8.23,1.261.186-.068-.293-.143-.54-.181-.792a5.4,5.4,0,0,1,.246-2.265,3.278,3.278,0,0,0-.137-2.244A.766.766,0,0,1,147.946,57.806Z"/><path class="cls-8" d="M137.408,57.315l.99.491c-.271.607-.235.919.1,1.054.36.144.622-.032.789-.528.858.253.673,1.465-.011,2.347l-.142.009a3.477,3.477,0,0,1-.018-.6,4.408,4.408,0,0,1,.192-.65,1.862,1.862,0,0,1-1.682-.776A1.924,1.924,0,0,1,137.408,57.315Z"/><path class="cls-8" d="M141.989,60.148a4.688,4.688,0,0,1-.191.654,3.455,3.455,0,0,1-.334.5l-.113-.077c-.131-1.016.311-2.2,1.139-2.049-.027.287-.1.541.2.745a.834.834,0,0,0,.392.137c.377.005.534-.247.5-.816l1.088.086C144.489,60.406,143.336,60.766,141.989,60.148Z"/><path class="cls-8" d="M142.141,64.077a2.708,2.708,0,0,0-1.979,2.46,1.246,1.246,0,0,1-1.18,1.141,1.723,1.723,0,0,1-1.822-.986,1.674,1.674,0,0,1,.066-.921,5.875,5.875,0,0,1,.5-.909,1.356,1.356,0,0,0-.077-1.532,5.133,5.133,0,0,1-.538-1.125,5.142,5.142,0,0,0,1.149.681,2.191,2.191,0,0,0,.68.134.531.531,0,0,0,.589-.455.746.746,0,0,0-.224-.556.663.663,0,0,1-.232-.8,1.951,1.951,0,0,0,2.235.552.4.4,0,0,1-.34.561c-.119.026-.249.007-.368.032-.215.044-.456.063-.5.356-.046.321,0,.659.333.742a7.6,7.6,0,0,0,1.557.207,1.968,1.968,0,0,0,.766-.1C142.771,63.6,142.633,63.865,142.141,64.077Z"/><path class="cls-4" d="M141.177,64.079a2.077,2.077,0,0,0-1.335,1.934,2.117,2.117,0,0,1-.085.36,1.128,1.128,0,0,1-1.909.519,1.11,1.11,0,0,1-.25-.72,1.26,1.26,0,0,1,.231-.614c.418-.708.8-1.476.235-2.238a1.813,1.813,0,0,0,1.581.155C139.8,64.059,140.543,64.025,141.177,64.079Z"/><path class="cls-4" d="M126.977,89.073c.309.261,1.248.841,1.538-.136.055-.182-.657-.776-1.048-.923a5.6,5.6,0,0,0-1.748.02,4.847,4.847,0,0,1,.636.489C126.555,88.7,126.82,88.941,126.977,89.073Z"/><path class="cls-4" d="M121.249,91.369a8.913,8.913,0,0,0-1.157.572,1.97,1.97,0,0,1,.924.037,2.8,2.8,0,0,1,.919.606l.579-.135a4.529,4.529,0,0,0,.392-.6c.065-.17.1-.607-.228-.694A3.115,3.115,0,0,0,121.249,91.369Z"/><path class="cls-4" d="M120.535,98.142a3.014,3.014,0,0,0-.265,1.2c.065.266.347,1.263.347,1.263a3.527,3.527,0,0,1,1.033-1.669c.773-.671-.569-1.936-.484-1.77A4.876,4.876,0,0,0,120.535,98.142Z"/><path class="cls-4" d="M121.04,107.6c-.291.091-1.183.53-1.183.53a3.185,3.185,0,0,1,1.471.3.907.907,0,0,0,.981-.2.583.583,0,0,0,.121-.9A9.341,9.341,0,0,0,121.04,107.6Z"/><path class="cls-4" d="M120.067,113.852a5.881,5.881,0,0,0,.08,1.532l.826-1.283a1.534,1.534,0,0,1-.5-1.316C120.489,112.654,120.212,113.141,120.067,113.852Z"/><path class="cls-4" d="M123.722,118.85a3.545,3.545,0,0,1,.938-1.592,3.253,3.253,0,0,1-1.228-.743A2.93,2.93,0,0,0,123.722,118.85Z"/><path class="cls-4" d="M148.123,116.9a2.558,2.558,0,0,0,.043,1.321,2.359,2.359,0,0,1,1.11-1.118,5.279,5.279,0,0,1-.248-1.431A3.579,3.579,0,0,0,148.123,116.9Z"/><path class="cls-4" d="M151,119.811a3.458,3.458,0,0,0-.242,1.649,4.116,4.116,0,0,0,.63,1.082,1.869,1.869,0,0,1,.663-1.907.872.872,0,0,0-.291-.42A1.807,1.807,0,0,0,151,119.811Z"/><path class="cls-4" d="M157.463,122.364a2.847,2.847,0,0,1,.18.975,1.4,1.4,0,0,0,.547-.571,5.064,5.064,0,0,0,.356-1.438,3.629,3.629,0,0,1-1.826.113A3.783,3.783,0,0,1,157.463,122.364Z"/><path class="cls-4" d="M165.03,116.8a3.313,3.313,0,0,0-.222,1.695,1.9,1.9,0,0,0,.387,1.019c.077-.033.007-.719.567-1.151a.74.74,0,0,1,.439-.132,1.668,1.668,0,0,1-.311-.535.9.9,0,0,1-.012-.545A1.6,1.6,0,0,1,165.03,116.8Z"/><path class="cls-4" d="M168.532,121.924a2.338,2.338,0,0,0,.614,1.169,3.7,3.7,0,0,0,.49-.757,4.328,4.328,0,0,0,0-.888,2.7,2.7,0,0,1-1.116-.566A2.673,2.673,0,0,0,168.532,121.924Z"/><path class="cls-4" d="M174.762,121.342a7.188,7.188,0,0,1-1.212.073,5.346,5.346,0,0,0,1.066,1.03,2.609,2.609,0,0,0,1.085.253,1.554,1.554,0,0,1-.321-.895,1.376,1.376,0,0,1,.133-.679A2.8,2.8,0,0,1,174.762,121.342Z"/><path class="cls-3" d="M146.919,99.257c-.044,1.141-.49,1.5-1.3,2.32l-1.109,1.109-.461-.99c-.134.2-.263.4-.4.613-.225.351-.458.713-.715,1.069a4.04,4.04,0,0,1-.653.677c-.07.062-.142.124-.21.191l-.969.93-.427-.674a12.8,12.8,0,0,1-1.034.819,2.033,2.033,0,0,1-1.168.45,1.745,1.745,0,0,1-1.431-.941,9.726,9.726,0,0,1-.549-.964l-.339.377-.805-1.036a3.57,3.57,0,0,1-.638-1.3l-1.052.454s-.639-3.052-.718-3.581a4.666,4.666,0,0,1-4.447-2.7,3.094,3.094,0,0,1-.264-1.791c.55-1.518,1.888-2.213,1.448-3.829-.069-.254-.462-.718-.677-.716-.279,0-.192.216-.443.312a2.557,2.557,0,0,1-1.225.182.647.647,0,0,0-.916-.139.349.349,0,0,0-.228.341l.244,2.128-.694.223a3.32,3.32,0,0,0-.168-.505,3.543,3.543,0,0,0-1.092-1.144,2.013,2.013,0,0,0-.744-.09,1.276,1.276,0,0,1,.135.8,4.272,4.272,0,0,1-1.114,1.358c-.361.294-.215,1.4.349,1.521,0,0,1.03.173,1.281.481l.231.283-.123.489-.367-.29a1.741,1.741,0,0,0-1.147.045c-.339.1-.367.4-.69.567-.168.086-.683.455-.683.455.009-.058.563.212.774.773a3.092,3.092,0,0,0,.5,1.12s.377.557.864.462l.452-.1c.414-.046.247-.525.624-.594l.558-.123s.285,1.9.5,2.745a11.605,11.605,0,0,0,.469,1.312c.338.778,1.213,1.629,1.18,1.443a2.928,2.928,0,0,1,.477-1.754,1.442,1.442,0,0,1,.282-.184s.454,2.459.672,3.184a3.4,3.4,0,0,0,.891,1.113,1.482,1.482,0,0,1,.149-1.22,1,1,0,0,1,.568-.394s1.987,1.394,1.81,2.553c0,0-.711,1.551-4.617,2.713a6.494,6.494,0,0,1-1.445,0s-.342-.813-.491-1.053c-.164-.264-.768-1.24-1.419-1.48a4.526,4.526,0,0,0-.981-.067,1.253,1.253,0,0,1,.078.856c-.22.562-1.574,1.481-1.574,1.481a1.386,1.386,0,0,0,.645.723,4.057,4.057,0,0,0,1.574.231l-.052.526a5.7,5.7,0,0,0-2.165.514c-.56.294-1.43,1.575.488,2.414a5.8,5.8,0,0,0,1.29.164,2.438,2.438,0,0,1,.413-.987,5.788,5.788,0,0,1,.439-.46s.957-.137.516.822c-.189.41-1.013.592-1.265,1.152-.464,1.034.615,1.6,1.136,1.71s1.9.226,1.9.226a11.719,11.719,0,0,0,.806-1.114,6.084,6.084,0,0,0,.491-1.02s.624.459.722.724a5.853,5.853,0,0,1-.025,1.579s.519.01.672-.169a4.005,4.005,0,0,0,.695-3.252,2.062,2.062,0,0,1,.62.1,1.647,1.647,0,0,1,.593.724,2.764,2.764,0,0,1-.017,1.679,1.743,1.743,0,0,0-.009.394,5.4,5.4,0,0,0,1.574-1.678,1.735,1.735,0,0,0,.026-.987l.8-.559a8.418,8.418,0,0,1,1.124.139,4.012,4.012,0,0,1,1.454,1.188,5.491,5.491,0,0,0-.281-1.459c-.054-.129-.188-.39-.155-.526a9.433,9.433,0,0,1,1.987-3.553l.491.033A4.648,4.648,0,0,0,139.8,110.4a5.485,5.485,0,0,0,1.832.428s-.293-.608-.387-.823c-.178-.405-.051-.592-.051-.592s3.1-.066,3.277-.066-.083-.547-.083-.547l2.56-.078-.112-.431a14.38,14.38,0,0,0,2.228-.26c1.642-.386,4.838-1.8,6.5-1.973a9.963,9.963,0,0,1,1.446.131c.361.033-3.584,1.665-3.588,4.77,0,1.159,1.459,2.592,3.123,2.731.3.025,1.213.032,1.213.032l.077.625a4.686,4.686,0,0,1-1.935,1.612,9.942,9.942,0,0,1-1.961.033,11.247,11.247,0,0,0-.955-.987,2.453,2.453,0,0,0-2.245-.427,5.4,5.4,0,0,0-.9.526s.052,1.888.62,2.3c.59.431,1.755-.625,1.755-.625l.7.1a2.138,2.138,0,0,1-.129.329c-.393.583-1.338.753-1.6,1.25a.762.762,0,0,0,.078.691,3.279,3.279,0,0,1,1.109.494,11.329,11.329,0,0,1,1.213,1.316,1.952,1.952,0,0,0,1.187-.954c.057-.147.181-.625.181-.625a4.5,4.5,0,0,1,.568-.691c.265-.243.49-.461.49-.461l.439-.033a3.93,3.93,0,0,1-.1.823c-.054.122-.293.233-.336.362-.051.151.041,1.1.516,1.282a6.209,6.209,0,0,0,2.142-.065c.486-.212.722-1.489.594-1.843-.067-.184-.439-.361-.542-.427s.025-.757.025-.757.362-.131.465-.033a8.78,8.78,0,0,1,.9.921,8.81,8.81,0,0,1,.439.922.928.928,0,0,0,.671-.428,1.8,1.8,0,0,0,.051-1.546,2.683,2.683,0,0,0-.258-.428l-.051-.822a1.443,1.443,0,0,1,.98.493,2.344,2.344,0,0,1,.626,1.833s.962-.562,1.055-1.26a2.136,2.136,0,0,0-.184-1.231l.078-.394s1.79-.084,1.806-.954a3.551,3.551,0,0,1,.955-2.4,2.509,2.509,0,0,0-.813.072,5.836,5.836,0,0,0-.581.356,1.716,1.716,0,0,1-.8,0,2.085,2.085,0,0,1-1.342-2.5c.216-.934,2.22-2.632,2.22-2.632l.516.165s.3,1.17.413,1.546a4.909,4.909,0,0,0,2.142,2.829,13.409,13.409,0,0,0,4.567.855l.723,1.48a3.042,3.042,0,0,1-1.5,1.777,4.257,4.257,0,0,1-1.5-.066c-.839-.166-1.216-1.5-2.658-1.48a2.807,2.807,0,0,0-1.548.789,7.142,7.142,0,0,0-.731.651,2.862,2.862,0,0,0,.447.369,2.282,2.282,0,0,0,.955.164s-.1.316-.129.428a1.221,1.221,0,0,0,1.755,1.217c.223-.092.593-.888.593-.888l.387.1a1.882,1.882,0,0,1-.077.559c-.079.123-.368.129-.465.23a1.879,1.879,0,0,0-.309,1.744,2.3,2.3,0,0,0,2.554.625c.327-.131.372-.486.439-.691a2.343,2.343,0,0,0,.078-.954,1.213,1.213,0,0,0,.361-.1,3.408,3.408,0,0,0,.671-.789l.464.164s-.525,1.7.258,2.4c.152.136,2.429.026,3.045-.921a2.552,2.552,0,0,0-.24-1.9c-.11-.176-.508-.632-.508-.632l.207-.526a3.4,3.4,0,0,1,.541.033,2.461,2.461,0,0,1,1.7,1.25,1.5,1.5,0,0,0,.361-.921,2.009,2.009,0,0,0-.342-1.337,8.483,8.483,0,0,0-.819-.736,2.59,2.59,0,0,1-.026-.625c.033-.312.757-.109.833-.094a4.008,4.008,0,0,1,2.006,1.345,14.2,14.2,0,0,0-.091-2.084,3.725,3.725,0,0,0-1.432-2.127,7.06,7.06,0,0,0-.826-.23,6.734,6.734,0,0,1-.645-.428l.026-.362a3.908,3.908,0,0,0,1.368-1.316,3.407,3.407,0,0,0,.309-1.579,4.079,4.079,0,0,0-1.135-2.862,8.318,8.318,0,0,0-1.084-.756,2.993,2.993,0,0,1-.077,1.71,1.994,1.994,0,0,1-1.755,1.349c-.591,0-2.036-1.676-2.22-1.974-.31-.5-.286-.854-.025-1.118a6.685,6.685,0,0,1,.542-.428,3.592,3.592,0,0,0,1.445-.066,4.564,4.564,0,0,0,3.638-4.079c.2-2.75-1.753-3.949-3.071-4.572a6.708,6.708,0,0,0-1.935-.428l-.181.658-2.322-.724a1.749,1.749,0,0,1-.387.79c-.6.633-3.945.606-4.561.647-.3.02-1.212,0-1.212,0s-.511-.56-.7-.724a5.833,5.833,0,0,0-4.077-1.349c-3.027.158-5.295,2.2-7.252,2.467a9.275,9.275,0,0,1-2.039-.065,6.888,6.888,0,0,0,1.391.962,7.567,7.567,0,0,0,1.293.419,5.7,5.7,0,0,1-3.38.165,7.756,7.756,0,0,0,1.058.888c1.465.722,4.361.625,5.651.493a53.778,53.778,0,0,0,7.484-1.48c.231-.068.671-.3.9-.362a38.259,38.259,0,0,1,6.9-.316c.812.084,2.69.387,2.818,2.137a2.343,2.343,0,0,1-2.09,2.072c-2.289.481-7-.359-9.316,0-.613.095-1.786.658-2.4.757a19.458,19.458,0,0,1-2.967.032,15.721,15.721,0,0,1-1.6-.2c-.431-.087-.258-.329-.258-.329s-.726.028-.981,0c-.324-.036-.347-.294-.232-.3,0,0-1.21.018-1.626-.033-.679-.083-.49-.46-.49-.46a9.509,9.509,0,0,1-2.168.033.417.417,0,0,1-.284-.461s-1.613.428-1.935-.033c-.169-.241.1-1.283.1-1.283a2.729,2.729,0,0,0-.462.121c-.175.083-.418.43-.6.5C147.123,99.337,147.081,99.321,146.919,99.257Z"/><path class="cls-3" d="M147.946,91.165c.627-1.048.306-2.125.12-3.224a6.967,6.967,0,0,1-.68.6.729.729,0,0,1-1.146-.3,1.734,1.734,0,0,1-.111-.817,4.515,4.515,0,0,1,.257-.872c-.375.116-.659.209-.946.293a4.431,4.431,0,0,1-1.06.283c-.7.023-1.014-.426-.832-1.094.07-.258.182-.5.285-.782a3.862,3.862,0,0,0-1.792.416,8.312,8.312,0,0,1-1.178.525.518.518,0,0,1-.744-.433,7.008,7.008,0,0,1-.1-.7,1.649,1.649,0,0,0-1.16.749A10.841,10.841,0,0,1,138,86.813a.364.364,0,0,1-.321.073c-.583-.215-1.157-.452-1.766-.7a4.583,4.583,0,0,0-.471,2.424.613.613,0,0,1-.1.373,9.914,9.914,0,0,0-.6.851c-.183.36-.261.772-.434,1.138a1,1,0,0,1-1.332.7c.009.1.01.2.025.288a2.855,2.855,0,0,0,1.087,1.836c.115.092.113.331.165.5-.174.042-.364.15-.519.113a4.035,4.035,0,0,1-.749-.345,2.66,2.66,0,0,0,.567,1.634,2.2,2.2,0,0,1,.473,1.7,4.263,4.263,0,0,0,0,1.22c.1.708.276,1.406.437,2.2l1.177-.508a3.435,3.435,0,0,0,.574,2.226,1.817,1.817,0,0,1,.123-.135c.135-.115.272-.227.409-.341.095.149.2.293.285.448.308.573.567,1.179.925,1.719s.511.575,1.058.195c.6-.412,1.121-.924,1.69-1.376a2.4,2.4,0,0,1,.5-.238c.01.175.019.35.031.524,0,.02.022.038.077.125a5.838,5.838,0,0,0,.735-.72c.412-.569.769-1.178,1.166-1.759a4.212,4.212,0,0,1,.649-.8c.288-.252.575-.165.769.169.082.14.14.3.213.453a3.869,3.869,0,0,0,1.079-2.566c0-.568-.059-1.135-.062-1.7a2.609,2.609,0,0,1,.164-.612,6.185,6.185,0,0,0,.68,1.147c.325.339.8.229,1.261.186-.068-.294-.143-.54-.181-.793a5.4,5.4,0,0,1,.246-2.265,3.278,3.278,0,0,0-.137-2.244A.767.767,0,0,1,147.946,91.165Z"/><path class="cls-8" d="M137.408,90.675l.99.49c-.271.608-.235.92.1,1.055.36.143.622-.033.789-.529.858.253.673,1.466-.011,2.347l-.142.01a3.486,3.486,0,0,1-.018-.6,4.48,4.48,0,0,1,.192-.65,1.863,1.863,0,0,1-1.682-.775A1.924,1.924,0,0,1,137.408,90.675Z"/><path class="cls-8" d="M141.989,93.508a4.728,4.728,0,0,1-.191.654,3.393,3.393,0,0,1-.334.5l-.113-.076c-.131-1.017.311-2.2,1.139-2.05-.027.287-.1.542.2.745a.835.835,0,0,0,.392.138c.377,0,.534-.248.5-.816l1.088.086C144.489,93.765,143.336,94.126,141.989,93.508Z"/><path class="cls-8" d="M142.141,97.436a2.709,2.709,0,0,0-1.979,2.461,1.245,1.245,0,0,1-1.18,1.14,1.722,1.722,0,0,1-1.822-.985,1.678,1.678,0,0,1,.066-.922,5.968,5.968,0,0,1,.5-.909,1.356,1.356,0,0,0-.077-1.532,5.111,5.111,0,0,1-.538-1.125,5.083,5.083,0,0,0,1.149.682,2.22,2.22,0,0,0,.68.133.53.53,0,0,0,.589-.455.744.744,0,0,0-.224-.555.664.664,0,0,1-.232-.8,1.953,1.953,0,0,0,2.235.553.4.4,0,0,1-.34.561c-.119.026-.249.006-.368.031-.215.045-.456.064-.5.357-.046.321,0,.659.333.741a7.6,7.6,0,0,0,1.557.208,1.987,1.987,0,0,0,.766-.1C142.771,96.955,142.633,97.225,142.141,97.436Z"/><path class="cls-4" d="M141.177,97.439a2.075,2.075,0,0,0-1.335,1.934,2.163,2.163,0,0,1-.085.36,1.128,1.128,0,0,1-1.909.519,1.113,1.113,0,0,1-.25-.721,1.264,1.264,0,0,1,.231-.614c.418-.708.8-1.475.235-2.238a1.813,1.813,0,0,0,1.581.155C139.8,97.418,140.543,97.385,141.177,97.439Z"/><path class="cls-4" d="M126.977,122.433c.309.261,1.248.841,1.538-.136.055-.182-.657-.777-1.048-.923a5.6,5.6,0,0,0-1.748.019,4.955,4.955,0,0,1,.636.489C126.555,122.064,126.82,122.3,126.977,122.433Z"/><path class="cls-4" d="M121.249,124.729a8.952,8.952,0,0,0-1.157.571,1.962,1.962,0,0,1,.924.038,2.8,2.8,0,0,1,.919.606l.579-.136a4.5,4.5,0,0,0,.392-.6c.065-.171.1-.608-.228-.695A3.115,3.115,0,0,0,121.249,124.729Z"/><path class="cls-4" d="M120.535,131.5a3.022,3.022,0,0,0-.265,1.2c.065.266.347,1.262.347,1.262a3.527,3.527,0,0,1,1.033-1.668c.773-.671-.569-1.937-.484-1.771A4.876,4.876,0,0,0,120.535,131.5Z"/><path class="cls-4" d="M121.04,140.954c-.291.092-1.183.531-1.183.531a3.185,3.185,0,0,1,1.471.3.906.906,0,0,0,.981-.2s.589-.419.121-.9A9.422,9.422,0,0,0,121.04,140.954Z"/><path class="cls-4" d="M120.067,147.211a5.886,5.886,0,0,0,.08,1.533l.826-1.283a1.534,1.534,0,0,1-.5-1.316C120.489,146.013,120.212,146.5,120.067,147.211Z"/><path class="cls-4" d="M123.722,152.21a3.545,3.545,0,0,1,.938-1.592,3.26,3.26,0,0,1-1.228-.744A2.932,2.932,0,0,0,123.722,152.21Z"/><path class="cls-4" d="M148.123,150.262a2.562,2.562,0,0,0,.043,1.322,2.358,2.358,0,0,1,1.11-1.119,5.273,5.273,0,0,1-.248-1.431A3.579,3.579,0,0,0,148.123,150.262Z"/><path class="cls-4" d="M151,153.171a3.455,3.455,0,0,0-.242,1.648,4.108,4.108,0,0,0,.63,1.083A1.869,1.869,0,0,1,152.05,154a.872.872,0,0,0-.291-.42A1.807,1.807,0,0,0,151,153.171Z"/><path class="cls-4" d="M157.463,155.724a2.844,2.844,0,0,1,.18.975,1.4,1.4,0,0,0,.547-.571,5.064,5.064,0,0,0,.356-1.438,3.64,3.64,0,0,1-1.826.113A3.783,3.783,0,0,1,157.463,155.724Z"/><path class="cls-4" d="M165.03,150.157a3.313,3.313,0,0,0-.222,1.695,1.91,1.91,0,0,0,.387,1.02c.077-.033.007-.719.567-1.152a.735.735,0,0,1,.439-.131,1.682,1.682,0,0,1-.311-.535.9.9,0,0,1-.012-.545A1.6,1.6,0,0,1,165.03,150.157Z"/><path class="cls-4" d="M168.532,155.284a2.337,2.337,0,0,0,.614,1.168,3.681,3.681,0,0,0,.49-.756,4.338,4.338,0,0,0,0-.889,2.687,2.687,0,0,1-1.116-.566A2.678,2.678,0,0,0,168.532,155.284Z"/><path class="cls-4" d="M174.762,154.7a7.188,7.188,0,0,1-1.212.073,5.375,5.375,0,0,0,1.066,1.03,2.6,2.6,0,0,0,1.085.252,1.554,1.554,0,0,1-.321-.895,1.374,1.374,0,0,1,.133-.678A2.8,2.8,0,0,1,174.762,154.7Z"/><path class="cls-3" d="M146.919,132.616c-.044,1.142-.49,1.506-1.3,2.32l-1.109,1.11-.461-.99c-.134.2-.263.4-.4.612-.225.351-.458.714-.715,1.069a4.088,4.088,0,0,1-.653.678c-.07.062-.142.124-.21.19l-.969.93-.427-.674a12.811,12.811,0,0,1-1.034.82,2.04,2.04,0,0,1-1.168.45,1.743,1.743,0,0,1-1.431-.942,9.5,9.5,0,0,1-.549-.964l-.339.377-.805-1.036a3.562,3.562,0,0,1-.638-1.3l-1.052.455s-.639-3.052-.718-3.581a4.665,4.665,0,0,1-4.447-2.7,3.094,3.094,0,0,1-.264-1.791c.55-1.518,1.888-2.213,1.448-3.829-.069-.253-.462-.717-.677-.716-.279,0-.192.216-.443.312a2.557,2.557,0,0,1-1.225.183.647.647,0,0,0-.916-.139.349.349,0,0,0-.228.341l.244,2.128-.694.222a3.357,3.357,0,0,0-.168-.5,3.55,3.55,0,0,0-1.092-1.143,2,2,0,0,0-.744-.091,1.278,1.278,0,0,1,.135.8,4.264,4.264,0,0,1-1.114,1.357c-.361.3-.215,1.4.349,1.522,0,0,1.03.172,1.281.48l.231.283-.123.49-.367-.291a1.755,1.755,0,0,0-1.147.045c-.339.1-.367.4-.69.568-.168.086-.683.454-.683.454.009-.057.563.213.774.773a3.085,3.085,0,0,0,.5,1.12s.377.557.864.462l.452-.1c.414-.046.247-.526.624-.595l.558-.123s.285,1.9.5,2.745a11.605,11.605,0,0,0,.469,1.312c.338.779,1.213,1.63,1.18,1.443A2.928,2.928,0,0,1,128,135.4a1.426,1.426,0,0,1,.282-.183s.454,2.458.672,3.183a3.4,3.4,0,0,0,.891,1.114,1.482,1.482,0,0,1,.149-1.22,1,1,0,0,1,.568-.395s1.987,1.395,1.81,2.553c0,0-.711,1.552-4.617,2.713a6.494,6.494,0,0,1-1.445,0s-.342-.812-.491-1.052c-.164-.265-.768-1.24-1.419-1.481a4.575,4.575,0,0,0-.981-.066,1.252,1.252,0,0,1,.078.856c-.22.561-1.574,1.48-1.574,1.48a1.39,1.39,0,0,0,.645.724,4.067,4.067,0,0,0,1.574.23l-.052.526a5.7,5.7,0,0,0-2.165.514c-.56.3-1.43,1.576.488,2.414a5.812,5.812,0,0,0,1.29.165,2.438,2.438,0,0,1,.413-.987,5.669,5.669,0,0,1,.439-.461s.957-.137.516.823c-.189.41-1.013.591-1.265,1.151-.464,1.034.615,1.6,1.136,1.711s1.9.226,1.9.226a11.8,11.8,0,0,0,.806-1.115,6.056,6.056,0,0,0,.491-1.019s.624.459.722.723a5.853,5.853,0,0,1-.025,1.579s.519.01.672-.168a4.008,4.008,0,0,0,.695-3.253,2.039,2.039,0,0,1,.62.1,1.641,1.641,0,0,1,.593.724,2.764,2.764,0,0,1-.017,1.679,1.734,1.734,0,0,0-.009.393,5.386,5.386,0,0,0,1.574-1.678,1.735,1.735,0,0,0,.026-.987l.8-.559a8.294,8.294,0,0,1,1.124.14,4,4,0,0,1,1.454,1.188,5.491,5.491,0,0,0-.281-1.459c-.054-.13-.188-.39-.155-.527a9.424,9.424,0,0,1,1.987-3.552l.491.032a4.648,4.648,0,0,0,1.393,1.579,5.459,5.459,0,0,0,1.832.428s-.293-.607-.387-.822c-.178-.406-.051-.592-.051-.592s3.1-.066,3.277-.066-.083-.548-.083-.548l2.56-.077-.112-.432a14.324,14.324,0,0,0,2.228-.259c1.642-.387,4.838-1.8,6.5-1.974a10.108,10.108,0,0,1,1.446.132c.361.033-3.584,1.665-3.588,4.77,0,1.158,1.459,2.591,3.123,2.73.3.026,1.213.033,1.213.033l.077.625a4.694,4.694,0,0,1-1.935,1.612,10.022,10.022,0,0,1-1.961.033,11.106,11.106,0,0,0-.955-.987,2.453,2.453,0,0,0-2.245-.428,5.385,5.385,0,0,0-.9.527s.052,1.888.62,2.3c.59.431,1.755-.625,1.755-.625l.7.1a2.179,2.179,0,0,1-.129.329c-.393.583-1.338.753-1.6,1.25a.763.763,0,0,0,.078.691,3.29,3.29,0,0,1,1.109.493,11.329,11.329,0,0,1,1.213,1.316,1.948,1.948,0,0,0,1.187-.954c.057-.146.181-.625.181-.625a4.549,4.549,0,0,1,.568-.691c.265-.243.49-.46.49-.46l.439-.033a3.915,3.915,0,0,1-.1.822c-.054.122-.293.233-.336.362-.051.152.041,1.1.516,1.283a6.2,6.2,0,0,0,2.142-.066c.486-.212.722-1.489.594-1.842-.067-.184-.439-.362-.542-.428s.025-.756.025-.756.362-.132.465-.033a3.509,3.509,0,0,1,1.342,1.842.928.928,0,0,0,.671-.428,1.8,1.8,0,0,0,.051-1.546,2.661,2.661,0,0,0-.258-.427l-.051-.823a1.447,1.447,0,0,1,.98.494,2.344,2.344,0,0,1,.626,1.833s.962-.563,1.055-1.261a2.131,2.131,0,0,0-.184-1.23l.078-.4s1.79-.084,1.806-.954a3.55,3.55,0,0,1,.955-2.4,2.509,2.509,0,0,0-.813.072,5.826,5.826,0,0,0-.581.355,1.7,1.7,0,0,1-.8,0,2.084,2.084,0,0,1-1.342-2.5c.216-.933,2.22-2.631,2.22-2.631l.516.164s.3,1.17.413,1.546a4.905,4.905,0,0,0,2.142,2.829,13.409,13.409,0,0,0,4.567.855l.723,1.481a3.041,3.041,0,0,1-1.5,1.776,4.233,4.233,0,0,1-1.5-.066c-.839-.165-1.216-1.494-2.658-1.48a2.809,2.809,0,0,0-1.548.79,7.06,7.06,0,0,0-.731.65,2.862,2.862,0,0,0,.447.369,2.272,2.272,0,0,0,.955.165s-.1.316-.129.427a1.221,1.221,0,0,0,1.755,1.218c.223-.092.593-.889.593-.889l.387.1a1.878,1.878,0,0,1-.077.559c-.079.123-.368.13-.465.231a1.877,1.877,0,0,0-.309,1.743,2.3,2.3,0,0,0,2.554.625c.327-.13.372-.486.439-.691a2.343,2.343,0,0,0,.078-.954,1.2,1.2,0,0,0,.361-.1,3.4,3.4,0,0,0,.671-.79l.464.165s-.525,1.7.258,2.4c.152.136,2.429.025,3.045-.921a2.554,2.554,0,0,0-.24-1.9c-.11-.175-.508-.631-.508-.631l.207-.526a3.494,3.494,0,0,1,.541.032,2.464,2.464,0,0,1,1.7,1.25,1.5,1.5,0,0,0,.361-.921,2.01,2.01,0,0,0-.342-1.337,8.582,8.582,0,0,0-.819-.735,2.594,2.594,0,0,1-.026-.625c.033-.312.757-.109.833-.094a4,4,0,0,1,2.006,1.344,14.188,14.188,0,0,0-.091-2.083,3.728,3.728,0,0,0-1.432-2.128,7.474,7.474,0,0,0-.826-.23,6.734,6.734,0,0,1-.645-.428l.026-.361a3.908,3.908,0,0,0,1.368-1.316,3.41,3.41,0,0,0,.309-1.579,4.077,4.077,0,0,0-1.135-2.862,8.352,8.352,0,0,0-1.084-.757,3,3,0,0,1-.077,1.711,2,2,0,0,1-1.755,1.349c-.591,0-2.036-1.676-2.22-1.974-.31-.5-.286-.854-.025-1.119a6.613,6.613,0,0,1,.542-.427,3.613,3.613,0,0,0,1.445-.066,4.564,4.564,0,0,0,3.638-4.079c.2-2.75-1.753-3.95-3.071-4.573a6.729,6.729,0,0,0-1.935-.427l-.181.658-2.322-.724a1.743,1.743,0,0,1-.387.789c-.6.633-3.945.606-4.561.647-.3.02-1.212,0-1.212,0s-.511-.559-.7-.724a5.833,5.833,0,0,0-4.077-1.348c-3.027.158-5.295,2.2-7.252,2.467a9.317,9.317,0,0,1-2.039-.066,6.875,6.875,0,0,0,1.391.963,7.567,7.567,0,0,0,1.293.419,5.7,5.7,0,0,1-3.38.164,7.756,7.756,0,0,0,1.058.888c1.465.723,4.361.626,5.651.494a53.925,53.925,0,0,0,7.484-1.48c.231-.069.671-.3.9-.362a38.329,38.329,0,0,1,6.9-.317c.812.085,2.69.388,2.818,2.137a2.342,2.342,0,0,1-2.09,2.072c-2.289.481-7-.359-9.316,0-.613.1-1.786.658-2.4.757a19.33,19.33,0,0,1-2.967.033c-.4-.018-1.315-.14-1.6-.2-.431-.087-.258-.329-.258-.329s-.726.028-.981,0c-.324-.036-.347-.294-.232-.3,0,0-1.21.018-1.626-.033-.679-.084-.49-.461-.49-.461a9.45,9.45,0,0,1-2.168.033.416.416,0,0,1-.284-.46s-1.613.427-1.935-.033c-.169-.241.1-1.283.1-1.283a2.8,2.8,0,0,0-.462.12c-.175.084-.418.431-.6.5C147.123,132.7,147.081,132.681,146.919,132.616Z"/><path class="cls-3" d="M147.946,124.525c.627-1.049.306-2.125.12-3.224a6.947,6.947,0,0,1-.68.6.728.728,0,0,1-1.146-.3,1.73,1.73,0,0,1-.111-.817,4.515,4.515,0,0,1,.257-.872c-.375.117-.659.21-.946.294a4.526,4.526,0,0,1-1.06.283c-.7.022-1.014-.426-.832-1.095.07-.257.182-.5.285-.782a3.851,3.851,0,0,0-1.792.417,8.312,8.312,0,0,1-1.178.525.518.518,0,0,1-.744-.433,7.008,7.008,0,0,1-.1-.7,1.648,1.648,0,0,0-1.16.748,10.853,10.853,0,0,1-.862,1.007.366.366,0,0,1-.321.072c-.583-.214-1.157-.452-1.766-.7a4.579,4.579,0,0,0-.471,2.424.613.613,0,0,1-.1.373,9.76,9.76,0,0,0-.6.851c-.183.359-.261.771-.434,1.138a1,1,0,0,1-1.332.7c.009.1.01.2.025.289a2.858,2.858,0,0,0,1.087,1.836c.115.091.113.33.165.5-.174.043-.364.151-.519.113a4.035,4.035,0,0,1-.749-.345,2.658,2.658,0,0,0,.567,1.634,2.206,2.206,0,0,1,.473,1.7,4.256,4.256,0,0,0,0,1.219c.1.708.276,1.406.437,2.2l1.177-.509a3.438,3.438,0,0,0,.574,2.227,1.48,1.48,0,0,1,.123-.135c.135-.116.272-.228.409-.341.095.149.2.292.285.447.308.574.567,1.179.925,1.719s.511.576,1.058.2c.6-.413,1.121-.924,1.69-1.377a2.4,2.4,0,0,1,.5-.237c.01.175.019.349.031.524,0,.019.022.038.077.125a5.978,5.978,0,0,0,.735-.72c.412-.57.769-1.179,1.166-1.759a4.187,4.187,0,0,1,.649-.8c.288-.252.575-.165.769.169.082.141.14.3.213.453a3.869,3.869,0,0,0,1.079-2.566c0-.567-.059-1.134-.062-1.7a2.621,2.621,0,0,1,.164-.612,6.152,6.152,0,0,0,.68,1.147c.325.339.8.23,1.261.186-.068-.293-.143-.54-.181-.792a5.4,5.4,0,0,1,.246-2.265,3.278,3.278,0,0,0-.137-2.244A.766.766,0,0,1,147.946,124.525Z"/><path class="cls-8" d="M137.408,124.034l.99.491c-.271.607-.235.919.1,1.054.36.144.622-.032.789-.528.858.253.673,1.465-.011,2.347l-.142.009a3.477,3.477,0,0,1-.018-.6,4.408,4.408,0,0,1,.192-.65,1.862,1.862,0,0,1-1.682-.776A1.924,1.924,0,0,1,137.408,124.034Z"/><path class="cls-8" d="M141.989,126.867a4.688,4.688,0,0,1-.191.654,3.455,3.455,0,0,1-.334.5l-.113-.077c-.131-1.016.311-2.2,1.139-2.049-.027.287-.1.541.2.745a.834.834,0,0,0,.392.137c.377,0,.534-.247.5-.816l1.088.086C144.489,127.125,143.336,127.485,141.989,126.867Z"/><path class="cls-8" d="M142.141,130.8a2.708,2.708,0,0,0-1.979,2.46,1.246,1.246,0,0,1-1.18,1.141,1.723,1.723,0,0,1-1.822-.986,1.674,1.674,0,0,1,.066-.921,5.875,5.875,0,0,1,.5-.909,1.356,1.356,0,0,0-.077-1.532,5.133,5.133,0,0,1-.538-1.125,5.142,5.142,0,0,0,1.149.681,2.191,2.191,0,0,0,.68.134.531.531,0,0,0,.589-.455.746.746,0,0,0-.224-.556.663.663,0,0,1-.232-.8,1.951,1.951,0,0,0,2.235.552.4.4,0,0,1-.34.561c-.119.026-.249.007-.368.032-.215.044-.456.063-.5.356-.046.321,0,.659.333.742a7.6,7.6,0,0,0,1.557.207,1.968,1.968,0,0,0,.766-.1C142.771,130.314,142.633,130.584,142.141,130.8Z"/><path class="cls-4" d="M141.177,130.8a2.077,2.077,0,0,0-1.335,1.934,2.117,2.117,0,0,1-.085.36,1.128,1.128,0,0,1-1.909.519,1.11,1.11,0,0,1-.25-.72,1.26,1.26,0,0,1,.231-.614c.418-.708.8-1.476.235-2.238a1.813,1.813,0,0,0,1.581.155C139.8,130.778,140.543,130.744,141.177,130.8Z"/></g></svg>